# xmcd
#
# Track frame offsets:
#	150
#	24835
#	46745
#	70917
#	92037
#	106747
#	122210
#	145547
#	161272
#	184377
#	206497
#	232070
#	247855
#	270700
#	282600
#	307200
#
# Disc length: 4108 seconds
#
# Revision: 0
# Processed by: cddbd v1.5.1PL2 Copyright (c) Steve Scherf et al.
# Submitted via: audiograbber 1.83.01
#
DISCID=df100a10
DTITLE=Various Artist - SC8675
DYEAR=1900
DGENRE=Blues
TTITLE0=Allman Brothers Band, The - It's Not My Cross To Bear
TTITLE1=Stevie Ray Vaughan - The Sky Is Crying
TTITLE2=Susan Tedeschi - It Hurt So Bad
TTITLE3=Cream - Crossroads
TTITLE4=B.B. King - Rock Me Baby
TTITLE5=Bonnie Raitt - Love Me Like A Man
TTITLE6=Led Zeppelin - I Can't Quit You Baby
TTITLE7=Etta James - I Just Want To Make Love To You
TTITLE8=Jeff Beck - I Ain't Superstitious
TTITLE9=Susan Tedeschi - Rock Me Right
TTITLE10=Stevie Ray Vaughan - Texas Flood
TTITLE11=Muddy Waters - Mannish Boy
TTITLE12=Allman Brothers Band, The - One Way Out
TTITLE13=Junior Wells - Messin' With The Kid
TTITLE14=Little Milton - Grits Ain't Groceries
TTITLE15=Data Track - Data Track
EXTD=
EXTT0=
EXTT1=
EXTT2=
EXTT3=
EXTT4=
EXTT5=
EXTT6=
EXTT7=
EXTT8=
EXTT9=
EXTT10=
EXTT11=
EXTT12=
EXTT13=
EXTT14=
EXTT15=
PLAYORDER=
